<svg xmlns="http://www.w3.org/2000/svg" viewBox="0 0 32 32" width="32" height="32">
  <rect width="32" height="32" rx="6" fill="#191B1E"/>
  <!-- B -->
  <path d="M3 9h4c1.8 0 3 .8 3 2.5 0 1-.5 1.7-1.4 2.1 1.2.4 2 1.3 2 2.7 0 2.2-1.7 3.3-3.8 3.3H3V9zm3.8 3.8c.9 0 1.4-.4 1.4-1.2 0-.7-.5-1.1-1.4-1.1H5v2.3h1.8zm.3 4.5c1 0 1.7-.5 1.7-1.4 0-.9-.7-1.3-1.7-1.3H5v2.7h2.1z" fill="#191B1E"/>
  <!-- N -->
  <path d="M12 9h2l3.2 5V9H19v10.6h-2l-3.2-5.3v5.3H12V9z" fill="#191B1E"/>
  <!-- C -->
  <path d="M22 14.3c0-3 1.8-5.5 4.8-5.5 2 0 3.2 1.1 3.7 2.6h-2c-.3-.7-.9-1.1-1.7-1.1-2 0-2.8 1.8-2.8 4 0 2.2.8 4 2.8 4 .8 0 1.4-.4 1.7-1.1h2c-.5 1.5-1.7 2.6-3.7 2.6-3 0-4.8-2.5-4.8-5.5z" fill="#191B1E"/>
</svg>
